<svg width="32" height="32" viewBox="0 0 32 32" fill="none" xmlns="http://www.w3.org/2000/svg">
  <rect width="32" height="32" rx="6" fill="#111111"/>
  <path d="M10 12C10 10.8954 10.8954 10 12 10H14C15.1046 10 16 10.8954 16 12V14C16 15.1046 15.1046 16 14 16H12C10.8954 16 10 15.1046 10 14V12Z" fill="white"/>
  <path d="M10 18C10 16.8954 10.8954 16 12 16H20C21.1046 16 22 16.8954 22 18C22 19.1046 21.1046 20 20 20H12C10.8954 20 10 19.1046 10 18Z" fill="white"/>
  <path d="M10 24C10 22.8954 10.8954 22 12 22H18C19.1046 22 20 22.8954 20 24C20 25.1046 19.1046 26 18 26H12C10.8954 26 10 25.1046 10 24Z" fill="white"/>
</svg>
