<svg width="139" height="32" viewBox="0 0 139 32" fill="none" xmlns="http://www.w3.org/2000/svg">
<path d="M15.2461 1.34375C22.5118 1.34388 28.3072 5.92202 29.7354 12.3477H24.4434C23.1412 8.65204 19.5717 6.17394 15.2461 6.17383C9.53417 6.17383 5.16613 10.542 5.16602 16.3379C5.16602 22.1339 9.53409 26.502 15.2461 26.502C19.5719 26.5018 23.1413 24.024 24.4434 20.3281H29.7354C28.3073 26.754 22.5119 31.3319 15.2461 31.332C6.59409 31.332 0 24.8639 0 16.3379C0.000116045 7.812 6.59417 1.34375 15.2461 1.34375ZM87.5898 8.9043C94.0998 8.9043 99.0557 13.7342 99.0557 20.1182C99.0556 26.5021 94.0998 31.332 87.5898 31.332C81.038 31.3319 76.124 26.502 76.124 20.1182C76.124 13.7343 81.038 8.90445 87.5898 8.9043ZM126.966 8.9043C133.518 8.90431 138.432 13.7342 138.432 20.1602C138.432 20.748 138.39 21.3779 138.306 21.9238H120.582C121.296 25.0318 123.816 27.0898 127.176 27.0898C129.654 27.0898 131.796 25.9982 132.888 24.3604H138.096C136.374 28.5182 132.174 31.332 127.092 31.332C120.456 31.332 115.542 26.5021 115.542 20.1182C115.542 13.7342 120.456 8.9043 126.966 8.9043ZM37.9355 30.8281H33.2314V0.587891H37.9355V30.8281ZM47.5547 30.8281H42.8506V9.4082H47.5547V30.8281ZM64.3135 8.9043C69.3952 8.90438 72.7967 12.264 72.7969 17.3457V30.8281H68.0938V18.9004C68.0938 15.6246 65.9935 13.4406 62.7598 13.4404C59.3578 13.4404 57.0889 15.6664 57.0889 18.9844V30.8281H52.3857V9.4082H57.0889V12.1377C58.8109 10.0377 61.2895 8.9043 64.3135 8.9043ZM108.288 9.4082H113.58V13.6924H108.288V23.4785C108.288 25.3682 109.464 26.5019 111.438 26.502H113.58V30.8281H110.766C106.104 30.8281 103.584 28.4762 103.584 24.2344V13.6924H99.9717V9.4082H102.155C103.247 9.4082 103.836 8.82026 103.836 7.72852V3.6123H108.288V9.4082ZM87.5898 13.4404C83.81 13.4406 80.9541 16.3383 80.9541 20.1182C80.9541 23.898 83.81 26.7957 87.5898 26.7959C91.3698 26.7959 94.1845 23.8981 94.1846 20.1182C94.1846 16.3382 91.3698 13.4404 87.5898 13.4404ZM126.966 13.1465C123.858 13.1465 121.38 15.0785 120.624 18.0605H133.392C132.678 15.1206 130.158 13.1465 126.966 13.1465ZM45.2021 0C46.9241 0 48.2266 1.26042 48.2266 2.98242C48.2264 4.66228 46.924 5.96387 45.2021 5.96387C43.5223 5.96379 42.2209 4.66223 42.2207 2.98242C42.2207 1.26047 43.5222 7.05672e-05 45.2021 0Z" fill="black"/>
</svg>
